# xmcd CD database file
#
# Track frame offsets:
#	150
#	28913
#	74304
#	102688
#	155399
#	191866
#	214230
#	240261
#
# Disc length: 3561 seconds
#
# Revision: 0
# Processed by: cddbd v1.5.2PL0 Copyright (c) Steve Scherf et al.
# Submitted via: CDex 1.70beta2
#
DISCID=720de708
DTITLE=Rostislav Fras, Skip Wilkins Quintet - Frydlant Nights
DYEAR=2009
DGENRE=Jazz
TTITLE0=Watch Your Step (Fras)
TTITLE1=Elbow Room (Wilkins)
TTITLE2=Rosta-bout (Wetzel)
TTITLE3=Frydlant Nocturne (Wilkins)
TTITLE4=Down the Hatch (Feco)
TTITLE5=LTG (Wilkins)
TTITLE6=Waiting for Prague (Wilkins)
TTITLE7=Bob's Bop (Fras)
EXTD=YEAR: 2009
EXTT0=
EXTT1=
EXTT2=
EXTT3=
EXTT4=
EXTT5=
EXTT6=
EXTT7=
PLAYORDER=
